<?xml version="1.0" standalone="no"?><!DOCTYPE svg PUBLIC "-//W3C//DTD SVG 1.1//EN" "http://www.w3.org/Graphics/SVG/1.1/DTD/svg11.dtd"><svg t="1663123901248" class="icon" viewBox="0 0 1024 1024" version="1.1" xmlns="http://www.w3.org/2000/svg" p-id="6564" xmlns:xlink="http://www.w3.org/1999/xlink" width="200" height="200"><path d="M512 512c93.090909 0 186.181818-103.796364 186.181818-231.563636s-58.181818-209.454545-186.181818-209.454546-186.181818 82.618182-186.181818 210.618182 93.090909 230.4 186.181818 230.4zM384.465455 581.818182l112.407272 96.581818a23.272727 23.272727 0 0 0 30.254546 0L639.534545 581.818182A386.792727 386.792727 0 0 0 512 558.545455a386.792727 386.792727 0 0 0-127.534545 23.272727z" fill="#cdcdcd" p-id="6565"></path><path d="M687.476364 601.6L558.545455 713.076364a69.818182 69.818182 0 0 1-90.763637 0l-130.094545-111.476364C206.196364 665.134545 116.363636 782.894545 116.363636 837.818182c0 77.032727 177.105455 116.363636 395.636364 116.363636s395.636364-39.330909 395.636364-116.363636c0-54.923636-89.832727-172.683636-220.16-236.218182z" fill="#cdcdcd" p-id="6566"></path></svg>